<svg width="22" height="22" viewBox="0 0 22 22" fill="none" xmlns="http://www.w3.org/2000/svg">
<path d="M10.8693 0.875862C12.1693 0.834116 13.4645 1.05412 14.6778 1.5228C15.8911 1.99148 16.9978 2.69928 17.9322 3.60413C18.8666 4.50898 19.6096 5.59243 20.1169 6.79008C20.6243 7.98774 20.8858 9.27517 20.8858 10.5759C20.8858 11.8766 20.6243 13.164 20.1169 14.3616C19.6096 15.5593 18.8666 16.6427 17.9322 17.5476C16.9978 18.4524 15.8911 19.1602 14.6778 19.6289C13.4645 20.0976 12.1693 20.3176 10.8693 20.2759C9.89141 20.2786 8.91764 20.1494 7.97429 19.8919C7.79731 19.8435 7.60907 19.8577 7.44129 19.9319L5.45729 20.8079C5.33732 20.8606 5.20625 20.8831 5.07556 20.8734C4.94487 20.8637 4.81856 20.8221 4.70771 20.7522C4.59685 20.6823 4.50484 20.5863 4.43973 20.4725C4.37463 20.3588 4.33842 20.2308 4.33429 20.0999L4.28029 18.3199C4.27578 18.2118 4.24955 18.1057 4.20317 18.0079C4.15678 17.9101 4.09118 17.8227 4.01029 17.7509C3.00646 16.8472 2.20709 15.7397 1.66559 14.5024C1.12409 13.2651 0.852953 11.9264 0.870289 10.5759C0.862688 9.27441 1.11843 7.98486 1.62212 6.78481C2.12581 5.58475 2.86705 4.49898 3.80124 3.59282C4.73542 2.68665 5.84326 1.97882 7.0581 1.51191C8.27294 1.04499 9.56867 0.828636 10.8693 0.875862Z" stroke="black" stroke-width="1.739" stroke-miterlimit="10"/>
</svg>
